<svg width="380" height="510" viewBox="0 0 380 510" fill="none" xmlns="http://www.w3.org/2000/svg">
<path d="M109.749 20L20 126.874L113.651 238.394" stroke="#D95163" stroke-width="38.7891" stroke-linecap="round" stroke-linejoin="round"/>
<path d="M270.251 145.889L360 252.763L266.349 364.283" stroke="#D95163" stroke-width="38.7891" stroke-linecap="round" stroke-linejoin="round"/>
<path d="M227.669 20L153.529 363.855" stroke="#222A3C" stroke-width="38.7891" stroke-linecap="round" stroke-linejoin="round"/>
<path d="M80.8708 486.542C80.7234 486.026 80.576 485.523 80.4286 485.031C80.3058 484.515 80.1829 484.036 80.0601 483.594C79.9373 483.127 79.8267 482.697 79.7285 482.304C79.6548 481.911 79.5934 481.58 79.5442 481.309H79.3968C79.3477 481.58 79.274 481.911 79.1757 482.304C79.102 482.697 79.0038 483.127 78.8809 483.594C78.7827 484.061 78.6598 484.552 78.5124 485.068C78.3896 485.559 78.2545 486.063 78.1071 486.579L74.9012 497.671H71.2899L66.1678 477.919H69.4843L72.0269 488.458C72.1989 489.171 72.3585 489.895 72.5059 490.632C72.6779 491.345 72.8253 492.033 72.9481 492.696C73.071 493.335 73.157 493.887 73.2061 494.354H73.3535C73.4026 494.059 73.464 493.691 73.5377 493.249C73.636 492.807 73.7343 492.34 73.8325 491.848C73.9554 491.357 74.0782 490.866 74.201 490.374C74.3239 489.883 74.4467 489.441 74.5695 489.048L77.7754 477.919H81.313L84.4084 489.048C84.5803 489.613 84.74 490.215 84.8874 490.853C85.0594 491.492 85.2068 492.119 85.3296 492.733C85.477 493.322 85.5753 493.851 85.6244 494.317H85.735C85.7841 493.9 85.8701 493.384 85.9929 492.77C86.1157 492.131 86.2631 491.443 86.4351 490.706C86.6316 489.945 86.8159 489.195 86.9878 488.458L89.5673 477.919H92.8101L87.6511 497.671H83.9293L80.8708 486.542ZM103.318 477.588C104.915 477.588 106.291 477.956 107.445 478.693C108.6 479.43 109.484 480.474 110.099 481.825C110.737 483.152 111.057 484.712 111.057 486.505V488.458H98.3804C98.4295 490.694 98.9577 492.401 99.9649 493.58C100.972 494.735 102.385 495.312 104.203 495.312C105.382 495.312 106.426 495.202 107.335 494.981C108.268 494.735 109.226 494.391 110.209 493.949V496.786C109.251 497.228 108.305 497.548 107.372 497.744C106.463 497.965 105.357 498.076 104.055 498.076C102.286 498.076 100.727 497.695 99.3754 496.934C98.0242 496.172 96.9678 495.042 96.2063 493.544C95.4447 492.02 95.0639 490.166 95.0639 487.979C95.0639 485.817 95.4079 483.963 96.0957 482.415C96.7836 480.867 97.7417 479.676 98.97 478.841C100.223 478.005 101.672 477.588 103.318 477.588ZM103.318 480.241C101.893 480.241 100.763 480.744 99.9281 481.752C99.0928 482.734 98.6015 484.11 98.4541 485.879H107.74C107.74 484.749 107.581 483.766 107.261 482.931C106.942 482.096 106.45 481.445 105.787 480.978C105.148 480.486 104.325 480.241 103.318 480.241ZM118.914 476.519C118.914 477.354 118.889 478.14 118.84 478.877C118.816 479.59 118.779 480.155 118.73 480.572H118.914C119.43 479.737 120.155 479.037 121.088 478.472C122.022 477.907 123.201 477.624 124.626 477.624C126.935 477.624 128.777 478.484 130.153 480.204C131.553 481.899 132.254 484.442 132.254 487.832C132.254 490.092 131.934 491.984 131.295 493.507C130.657 495.03 129.76 496.172 128.605 496.934C127.475 497.695 126.149 498.076 124.626 498.076C123.176 498.076 121.985 497.794 121.051 497.228C120.142 496.663 119.43 495.988 118.914 495.202H118.656L118.03 497.708H115.708V469.702H118.914V476.519ZM124.036 480.315C122.759 480.315 121.739 480.585 120.978 481.125C120.241 481.641 119.712 482.452 119.393 483.557C119.074 484.638 118.914 486.026 118.914 487.721V487.869C118.914 490.301 119.27 492.168 119.983 493.47C120.72 494.747 122.095 495.386 124.11 495.386C125.707 495.386 126.91 494.735 127.721 493.433C128.532 492.131 128.937 490.252 128.937 487.795C128.937 485.314 128.532 483.447 127.721 482.194C126.91 480.941 125.682 480.315 124.036 480.315ZM135.5 489.269V486.395H143.939V489.269H135.5ZM154.763 498.076C152.478 498.076 150.635 497.228 149.235 495.533C147.859 493.814 147.172 491.259 147.172 487.869C147.172 484.479 147.872 481.924 149.272 480.204C150.672 478.46 152.515 477.588 154.799 477.588C155.758 477.588 156.593 477.723 157.305 477.993C158.018 478.239 158.632 478.583 159.148 479.025C159.688 479.467 160.143 479.958 160.511 480.499H160.732C160.708 480.179 160.659 479.713 160.585 479.098C160.536 478.46 160.511 477.956 160.511 477.588V469.702H163.717V497.708H161.138L160.659 495.054H160.511C160.143 495.619 159.688 496.135 159.148 496.602C158.632 497.044 158.005 497.4 157.268 497.671C156.556 497.941 155.721 498.076 154.763 498.076ZM155.352 495.386C157.268 495.386 158.607 494.821 159.369 493.691C160.155 492.536 160.548 490.804 160.548 488.495V487.906C160.548 485.449 160.18 483.57 159.443 482.268C158.706 480.941 157.33 480.278 155.315 480.278C153.694 480.278 152.478 480.978 151.667 482.378C150.881 483.754 150.488 485.609 150.488 487.942C150.488 490.301 150.881 492.131 151.667 493.433C152.478 494.735 153.706 495.386 155.352 495.386ZM176.766 477.588C178.362 477.588 179.738 477.956 180.893 478.693C182.047 479.43 182.932 480.474 183.546 481.825C184.185 483.152 184.504 484.712 184.504 486.505V488.458H171.828C171.877 490.694 172.405 492.401 173.412 493.58C174.419 494.735 175.832 495.312 177.65 495.312C178.829 495.312 179.873 495.202 180.782 494.981C181.716 494.735 182.674 494.391 183.656 493.949V496.786C182.698 497.228 181.753 497.548 180.819 497.744C179.91 497.965 178.805 498.076 177.503 498.076C175.734 498.076 174.174 497.695 172.823 496.934C171.472 496.172 170.415 495.042 169.654 493.544C168.892 492.02 168.511 490.166 168.511 487.979C168.511 485.817 168.855 483.963 169.543 482.415C170.231 480.867 171.189 479.676 172.417 478.841C173.67 478.005 175.12 477.588 176.766 477.588ZM176.766 480.241C175.341 480.241 174.211 480.744 173.375 481.752C172.54 482.734 172.049 484.11 171.901 485.879H181.188C181.188 484.749 181.028 483.766 180.708 482.931C180.389 482.096 179.898 481.445 179.234 480.978C178.596 480.486 177.773 480.241 176.766 480.241ZM192.599 497.708L185.561 477.956H188.988L192.894 489.601C193.09 490.141 193.287 490.743 193.483 491.406C193.68 492.07 193.852 492.708 193.999 493.322C194.171 493.912 194.282 494.416 194.331 494.833H194.478C194.552 494.416 194.675 493.9 194.847 493.286C195.019 492.671 195.203 492.033 195.399 491.369C195.62 490.706 195.817 490.117 195.989 489.601L199.895 477.956H203.322L196.247 497.708H192.599ZM227.442 492.254C227.442 493.531 227.135 494.6 226.521 495.46C225.932 496.32 225.084 496.971 223.979 497.413C222.873 497.855 221.546 498.076 219.999 498.076C218.697 498.076 217.567 497.965 216.609 497.744C215.675 497.523 214.852 497.216 214.14 496.823V493.875C214.901 494.268 215.81 494.637 216.867 494.981C217.923 495.3 218.992 495.46 220.072 495.46C221.571 495.46 222.652 495.202 223.315 494.686C224.003 494.145 224.347 493.433 224.347 492.549C224.347 492.057 224.212 491.615 223.942 491.222C223.696 490.829 223.242 490.436 222.578 490.043C221.94 489.65 221.006 489.208 219.778 488.716C218.599 488.225 217.579 487.734 216.719 487.242C215.884 486.751 215.233 486.161 214.766 485.473C214.324 484.786 214.103 483.901 214.103 482.82C214.103 481.15 214.742 479.86 216.019 478.951C217.321 478.042 219.016 477.588 221.104 477.588C222.234 477.588 223.291 477.71 224.273 477.956C225.256 478.177 226.19 478.497 227.074 478.914L226.005 481.494C225.489 481.248 224.949 481.039 224.384 480.867C223.819 480.671 223.242 480.523 222.652 480.425C222.087 480.302 221.51 480.241 220.92 480.241C219.716 480.241 218.795 480.462 218.156 480.904C217.518 481.322 217.198 481.899 217.198 482.636C217.198 483.176 217.346 483.643 217.64 484.036C217.935 484.429 218.414 484.81 219.078 485.179C219.765 485.523 220.699 485.928 221.878 486.395C223.057 486.861 224.065 487.34 224.9 487.832C225.735 488.323 226.361 488.925 226.779 489.637C227.221 490.325 227.442 491.197 227.442 492.254ZM238.282 495.423C238.748 495.423 239.227 495.386 239.719 495.312C240.21 495.214 240.615 495.116 240.935 495.017V497.486C240.591 497.658 240.1 497.794 239.461 497.892C238.847 498.015 238.257 498.076 237.692 498.076C236.709 498.076 235.8 497.904 234.965 497.56C234.13 497.192 233.454 496.565 232.938 495.681C232.447 494.796 232.201 493.556 232.201 491.959V480.462H229.585V478.914L232.275 477.624L233.491 473.424H235.407V477.956H240.787V480.462H235.407V491.885C235.407 493.089 235.678 493.986 236.218 494.575C236.759 495.14 237.446 495.423 238.282 495.423ZM260.271 477.956V497.708H257.691L257.212 495.091H257.065C256.672 495.779 256.156 496.344 255.517 496.786C254.903 497.228 254.227 497.548 253.49 497.744C252.753 497.965 251.98 498.076 251.169 498.076C249.695 498.076 248.454 497.83 247.447 497.339C246.44 496.823 245.678 496.037 245.162 494.981C244.671 493.924 244.425 492.561 244.425 490.89V477.956H247.668V490.669C247.668 492.241 248 493.421 248.663 494.207C249.326 494.993 250.346 495.386 251.722 495.386C253.073 495.386 254.129 495.116 254.891 494.575C255.677 494.01 256.23 493.2 256.549 492.143C256.893 491.062 257.065 489.76 257.065 488.237V477.956H260.271ZM272.653 498.076C270.368 498.076 268.525 497.228 267.125 495.533C265.749 493.814 265.062 491.259 265.062 487.869C265.062 484.479 265.762 481.924 267.162 480.204C268.562 478.46 270.405 477.588 272.689 477.588C273.648 477.588 274.483 477.723 275.195 477.993C275.908 478.239 276.522 478.583 277.038 479.025C277.578 479.467 278.033 479.958 278.401 480.499H278.622C278.598 480.179 278.549 479.713 278.475 479.098C278.426 478.46 278.401 477.956 278.401 477.588V469.702H281.607V497.708H279.028L278.549 495.054H278.401C278.033 495.619 277.578 496.135 277.038 496.602C276.522 497.044 275.895 497.4 275.158 497.671C274.446 497.941 273.611 498.076 272.653 498.076ZM273.242 495.386C275.158 495.386 276.497 494.821 277.259 493.691C278.045 492.536 278.438 490.804 278.438 488.495V487.906C278.438 485.449 278.069 483.57 277.332 482.268C276.595 480.941 275.22 480.278 273.205 480.278C271.584 480.278 270.368 480.978 269.557 482.378C268.771 483.754 268.378 485.609 268.378 487.942C268.378 490.301 268.771 492.131 269.557 493.433C270.368 494.735 271.596 495.386 273.242 495.386ZM290.676 477.956V497.708H287.47V477.956H290.676ZM289.091 470.549C289.583 470.549 290.012 470.721 290.381 471.065C290.749 471.385 290.934 471.901 290.934 472.613C290.934 473.301 290.749 473.817 290.381 474.161C290.012 474.505 289.583 474.677 289.091 474.677C288.575 474.677 288.133 474.505 287.765 474.161C287.396 473.817 287.212 473.301 287.212 472.613C287.212 471.901 287.396 471.385 287.765 471.065C288.133 470.721 288.575 470.549 289.091 470.549ZM312.752 487.795C312.752 489.441 312.543 490.903 312.126 492.18C311.733 493.433 311.155 494.502 310.394 495.386C309.632 496.27 308.711 496.946 307.63 497.413C306.549 497.855 305.345 498.076 304.019 498.076C302.79 498.076 301.648 497.855 300.592 497.413C299.56 496.946 298.651 496.27 297.865 495.386C297.103 494.502 296.514 493.433 296.096 492.18C295.678 490.903 295.47 489.441 295.47 487.795C295.47 485.609 295.814 483.766 296.501 482.268C297.214 480.744 298.221 479.59 299.523 478.804C300.825 477.993 302.361 477.588 304.129 477.588C305.824 477.588 307.311 477.993 308.588 478.804C309.89 479.59 310.91 480.744 311.647 482.268C312.384 483.766 312.752 485.609 312.752 487.795ZM298.786 487.795C298.786 489.343 298.97 490.694 299.339 491.848C299.707 492.978 300.285 493.851 301.071 494.465C301.857 495.079 302.864 495.386 304.092 495.386C305.321 495.386 306.328 495.079 307.114 494.465C307.9 493.851 308.478 492.978 308.846 491.848C309.239 490.694 309.436 489.343 309.436 487.795C309.436 486.223 309.239 484.884 308.846 483.778C308.478 482.673 307.9 481.825 307.114 481.236C306.328 480.622 305.309 480.315 304.056 480.315C302.213 480.315 300.874 480.978 300.039 482.304C299.204 483.631 298.786 485.461 298.786 487.795Z" fill="#222A3C"/>
<path d="M37.8853 503.53C36.4359 503.505 35.1953 503.284 34.1635 502.866C33.1317 502.449 32.3456 501.798 31.8051 500.913C31.2647 500.054 30.9945 498.973 30.9945 497.671V492.254C30.9945 491.419 30.8225 490.755 30.4786 490.264C30.1592 489.748 29.6802 489.38 29.0414 489.158C28.4273 488.913 27.6657 488.79 26.7568 488.79V486.1C27.6657 486.075 28.4273 485.952 29.0414 485.731C29.6802 485.51 30.1592 485.154 30.4786 484.663C30.8225 484.147 30.9945 483.484 30.9945 482.673V477.219C30.9945 476.236 31.1541 475.389 31.4735 474.677C31.7929 473.94 32.2473 473.338 32.8369 472.871C33.4511 472.38 34.1758 472.011 35.0111 471.765C35.8709 471.52 36.829 471.397 37.8853 471.397V474.05C37.1238 474.075 36.4605 474.21 35.8955 474.455C35.3304 474.701 34.8882 475.07 34.5689 475.561C34.2741 476.052 34.1267 476.703 34.1267 477.514V482.82C34.1267 484.073 33.8073 485.08 33.1686 485.842C32.5544 486.579 31.6086 487.07 30.3312 487.316V487.537C31.6086 487.783 32.5544 488.286 33.1686 489.048C33.8073 489.785 34.1267 490.78 34.1267 492.033V497.45C34.1267 498.236 34.2741 498.874 34.5689 499.366C34.8637 499.882 35.2936 500.25 35.8586 500.471C36.4236 500.717 37.0992 500.852 37.8853 500.877V503.53Z" fill="#D95163"/>
<path d="M342.096 500.877C342.907 500.852 343.582 500.717 344.123 500.471C344.688 500.226 345.118 499.845 345.413 499.329C345.707 498.838 345.855 498.199 345.855 497.413V492.07C345.855 490.817 346.174 489.822 346.813 489.085C347.452 488.323 348.397 487.82 349.65 487.574V487.353C348.373 487.107 347.415 486.616 346.776 485.879C346.162 485.117 345.855 484.11 345.855 482.857V477.477C345.855 476.666 345.707 476.015 345.413 475.524C345.118 475.033 344.688 474.664 344.123 474.419C343.582 474.173 342.907 474.05 342.096 474.05V471.397C343.202 471.397 344.172 471.52 345.007 471.765C345.867 472.011 346.592 472.38 347.181 472.871C347.771 473.338 348.213 473.94 348.508 474.677C348.827 475.414 348.987 476.273 348.987 477.256V482.636C348.987 483.471 349.147 484.147 349.466 484.663C349.81 485.154 350.289 485.523 350.903 485.768C351.542 485.989 352.316 486.1 353.225 486.1V488.79C352.316 488.79 351.542 488.913 350.903 489.158C350.289 489.38 349.81 489.736 349.466 490.227C349.147 490.718 348.987 491.382 348.987 492.217V497.708C348.987 499.01 348.704 500.09 348.139 500.95C347.574 501.81 346.776 502.449 345.744 502.866C344.712 503.309 343.496 503.53 342.096 503.53V500.877Z" fill="#D95163"/>
<path d="M98.7146 449.018L95.0839 438.731H82.749L79.1649 449.018H74.9291L87.0313 415.644H90.9412L102.997 449.018H98.7146ZM90.4292 424.953C90.3672 424.705 90.2275 424.255 90.0103 423.603C89.8241 422.952 89.6224 422.284 89.4052 421.602C89.219 420.888 89.0638 420.345 88.9397 419.973C88.7846 420.593 88.6139 421.229 88.4277 421.881C88.2726 422.502 88.1174 423.076 87.9622 423.603C87.8071 424.131 87.6674 424.581 87.5433 424.953L84.0988 435.007H93.8737L90.4292 424.953ZM110.748 449.018H106.698V413.642H110.748V449.018ZM127.231 423.603C129.248 423.603 130.985 424.069 132.444 425C133.902 425.931 135.02 427.249 135.795 428.956C136.602 430.632 137.006 432.602 137.006 434.868V437.335H120.993C121.055 440.158 121.723 442.315 122.995 443.805C124.267 445.263 126.052 445.992 128.348 445.992C129.837 445.992 131.156 445.853 132.304 445.573C133.484 445.263 134.694 444.829 135.935 444.27V447.854C134.725 448.413 133.53 448.816 132.351 449.064C131.203 449.344 129.806 449.483 128.162 449.483C125.927 449.483 123.957 449.002 122.25 448.04C120.543 447.078 119.209 445.651 118.247 443.758C117.285 441.834 116.804 439.491 116.804 436.729C116.804 433.999 117.239 431.656 118.108 429.701C118.976 427.746 120.187 426.241 121.738 425.186C123.321 424.131 125.152 423.603 127.231 423.603ZM127.231 426.955C125.431 426.955 124.003 427.591 122.948 428.863C121.893 430.104 121.273 431.842 121.087 434.076H132.816C132.816 432.649 132.615 431.408 132.211 430.353C131.808 429.297 131.187 428.475 130.349 427.886C129.543 427.265 128.503 426.955 127.231 426.955ZM147.556 436.264L139.457 424.069H144.065L150.023 433.471L155.888 424.069H160.496L152.397 436.264L160.915 449.018H156.307L150.023 439.057L143.646 449.018H139.085L147.556 436.264ZM189.913 449.018H185.77V433.518H170.037V449.018H165.895V415.783H170.037V429.841H185.77V415.783H189.913V449.018ZM217.665 424.069V449.018H214.407L213.802 445.713H213.616C213.119 446.582 212.467 447.296 211.661 447.854C210.885 448.413 210.031 448.816 209.1 449.064C208.17 449.344 207.192 449.483 206.168 449.483C204.306 449.483 202.739 449.173 201.467 448.552C200.195 447.901 199.233 446.908 198.581 445.573C197.96 444.239 197.65 442.517 197.65 440.407V424.069H201.746V440.127C201.746 442.113 202.165 443.603 203.003 444.596C203.841 445.589 205.128 446.085 206.866 446.085C208.573 446.085 209.907 445.744 210.869 445.061C211.862 444.348 212.56 443.324 212.964 441.989C213.398 440.624 213.616 438.979 213.616 437.055V424.069H217.665ZM240.427 442.129C240.427 443.743 240.039 445.092 239.263 446.178C238.518 447.265 237.448 448.087 236.051 448.645C234.655 449.204 232.979 449.483 231.024 449.483C229.38 449.483 227.952 449.344 226.742 449.064C225.563 448.785 224.523 448.397 223.623 447.901V444.177C224.585 444.673 225.734 445.139 227.068 445.573C228.402 445.977 229.752 446.178 231.117 446.178C233.01 446.178 234.376 445.853 235.214 445.201C236.082 444.518 236.517 443.618 236.517 442.501C236.517 441.881 236.346 441.322 236.005 440.826C235.695 440.329 235.121 439.833 234.283 439.336C233.476 438.84 232.297 438.281 230.745 437.66C229.256 437.04 227.968 436.419 226.882 435.799C225.827 435.178 225.004 434.433 224.415 433.564C223.856 432.695 223.577 431.578 223.577 430.213C223.577 428.103 224.384 426.474 225.997 425.325C227.642 424.177 229.783 423.603 232.421 423.603C233.848 423.603 235.183 423.758 236.424 424.069C237.665 424.348 238.844 424.751 239.961 425.279L238.612 428.537C237.96 428.227 237.277 427.963 236.563 427.746C235.85 427.498 235.121 427.311 234.376 427.187C233.662 427.032 232.933 426.955 232.188 426.955C230.668 426.955 229.504 427.234 228.697 427.792C227.89 428.32 227.487 429.049 227.487 429.98C227.487 430.663 227.673 431.252 228.045 431.749C228.418 432.245 229.023 432.726 229.861 433.192C230.73 433.626 231.909 434.138 233.398 434.728C234.888 435.318 236.16 435.923 237.215 436.543C238.27 437.164 239.061 437.924 239.589 438.824C240.148 439.693 240.427 440.795 240.427 442.129ZM254.119 446.132C254.708 446.132 255.313 446.085 255.934 445.992C256.555 445.868 257.067 445.744 257.47 445.62V448.739C257.036 448.956 256.415 449.126 255.608 449.251C254.832 449.406 254.088 449.483 253.374 449.483C252.133 449.483 250.984 449.266 249.929 448.832C248.874 448.366 248.021 447.575 247.369 446.458C246.749 445.341 246.438 443.774 246.438 441.757V427.234H243.134V425.279L246.531 423.65L248.067 418.343H250.488V424.069H257.284V427.234H250.488V441.663C250.488 443.184 250.829 444.317 251.512 445.061C252.195 445.775 253.064 446.132 254.119 446.132ZM271.095 423.65C273.95 423.65 276.076 424.317 277.472 425.651C278.9 426.986 279.614 429.111 279.614 432.028V449.018H276.681L275.89 445.48H275.704C275.021 446.38 274.323 447.14 273.609 447.761C272.926 448.351 272.119 448.785 271.189 449.064C270.289 449.344 269.172 449.483 267.837 449.483C266.441 449.483 265.184 449.22 264.067 448.692C262.95 448.164 262.065 447.358 261.414 446.272C260.762 445.154 260.436 443.758 260.436 442.082C260.436 439.6 261.352 437.691 263.182 436.357C265.013 434.992 267.837 434.247 271.654 434.123L275.61 433.983V432.494C275.61 430.415 275.192 428.972 274.354 428.165C273.547 427.358 272.383 426.955 270.863 426.955C269.652 426.955 268.489 427.156 267.372 427.56C266.286 427.932 265.246 428.367 264.253 428.863L262.996 425.791C264.051 425.201 265.277 424.705 266.673 424.301C268.07 423.867 269.544 423.65 271.095 423.65ZM272.213 436.962C269.358 437.086 267.372 437.583 266.255 438.452C265.168 439.321 264.625 440.546 264.625 442.129C264.625 443.525 265.013 444.549 265.789 445.201C266.565 445.853 267.573 446.178 268.815 446.178C270.739 446.178 272.352 445.604 273.656 444.456C274.959 443.277 275.61 441.477 275.61 439.057V436.823L272.213 436.962ZM302.247 442.129C302.247 443.743 301.859 445.092 301.083 446.178C300.339 447.265 299.268 448.087 297.872 448.645C296.475 449.204 294.799 449.483 292.844 449.483C291.2 449.483 289.772 449.344 288.562 449.064C287.383 448.785 286.343 448.397 285.444 447.901V444.177C286.405 444.673 287.554 445.139 288.888 445.573C290.222 445.977 291.572 446.178 292.938 446.178C294.83 446.178 296.196 445.853 297.034 445.201C297.903 444.518 298.337 443.618 298.337 442.501C298.337 441.881 298.166 441.322 297.825 440.826C297.515 440.329 296.941 439.833 296.103 439.336C295.296 438.84 294.117 438.281 292.565 437.66C291.076 437.04 289.788 436.419 288.702 435.799C287.647 435.178 286.824 434.433 286.235 433.564C285.676 432.695 285.397 431.578 285.397 430.213C285.397 428.103 286.204 426.474 287.817 425.325C289.462 424.177 291.603 423.603 294.241 423.603C295.668 423.603 297.003 423.758 298.244 424.069C299.485 424.348 300.664 424.751 301.781 425.279L300.432 428.537C299.78 428.227 299.097 427.963 298.384 427.746C297.67 427.498 296.941 427.311 296.196 427.187C295.482 427.032 294.753 426.955 294.008 426.955C292.488 426.955 291.324 427.234 290.517 427.792C289.71 428.32 289.307 429.049 289.307 429.98C289.307 430.663 289.493 431.252 289.865 431.749C290.238 432.245 290.843 432.726 291.681 433.192C292.55 433.626 293.729 434.138 295.218 434.728C296.708 435.318 297.98 435.923 299.035 436.543C300.09 437.164 300.882 437.924 301.409 438.824C301.968 439.693 302.247 440.795 302.247 442.129Z" fill="#222A3C"/>
</svg>
