<svg width="286" height="236" viewBox="0 0 286 236" fill="none" xmlns="http://www.w3.org/2000/svg">
<path d="M149.454 17.0612H13C7.47715 17.0612 3 21.5383 3 27.0611V208.939C3 214.462 7.47716 218.939 13 218.939H150.447" stroke="#D95163" stroke-width="5"/>
<path d="M4.98582 34.6376H150.447" stroke="#D95163" stroke-width="5"/>
<line x1="12.9291" y1="26.6135" x2="16.9007" y2="26.6135" stroke="#D95163" stroke-width="5"/>
<line x1="19.8794" y1="26.6135" x2="23.8511" y2="26.6135" stroke="#D95163" stroke-width="5"/>
<line x1="27.8227" y1="26.6135" x2="31.7943" y2="26.6135" stroke="#D95163" stroke-width="5"/>
<path d="M150.447 53.2184H19.8794V98.4149H150.447" stroke="#D95163" stroke-width="5"/>
<rect x="22.3794" y="124.015" width="85.3546" height="40.1965" stroke="#D95163" stroke-width="5"/>
<rect x="185.216" y="63.7533" width="55.5674" height="24.1266" stroke="#D95163" stroke-width="5"/>
<path d="M184.702 3H171.865C166.342 3 161.865 7.47715 161.865 13V223C161.865 228.523 166.342 233 171.865 233H273C278.523 233 283 228.523 283 223V13C283 7.47715 278.523 3 273 3H205.553M190.66 3H199.596" stroke="#D95163" stroke-width="5"/>
<line x1="162.858" y1="23.6005" x2="282.007" y2="23.6005" stroke="#D95163" stroke-width="5"/>
<line x1="212.504" y1="14.5612" x2="232.362" y2="14.5612" stroke="#D95163" stroke-width="5"/>
<rect x="171.316" y="46.6791" width="101.241" height="148.668" stroke="#D95163" stroke-width="5"/>
<path d="M227.876 212.913C227.876 215.997 225.412 218.448 222.433 218.448C219.453 218.448 216.989 215.997 216.989 212.913C216.989 209.829 219.453 207.378 222.433 207.378C225.412 207.378 227.876 209.829 227.876 212.913Z" stroke="#D95163" stroke-width="5"/>
<line x1="186.688" y1="107.967" x2="258.177" y2="107.967" stroke="#D95163" stroke-width="5"/>
<line x1="186.688" y1="124.037" x2="258.177" y2="124.037" stroke="#D95163" stroke-width="5"/>
<line x1="186.688" y1="140.107" x2="258.177" y2="140.107" stroke="#D95163" stroke-width="5"/>
<line x1="186.688" y1="156.177" x2="258.177" y2="156.177" stroke="#D95163" stroke-width="5"/>
</svg>
